<svg viewBox="0 0 300 300">
  <g >
    <path  style="fill:none;opacity:1;stroke:#000000;stroke-linecap:round;stroke-linejoin:round;stroke-miterlimit:10;stroke-opacity:1;stroke-width:3;" d="M13.3828,77.9485 C31.4127,74.5677,30.8295,49.3909,47.353,42.2929 C62.6656,35.7151,78.2153,29.277,94.5663,25.597 C114.685,21.0689,134.731,20.5496,155.159,19.4386 C171.243,18.5638,187.878,17.8114,203.955,19.1484 C225.96,20.9784,255.132,24.8524,258.406,51.9184 C258.872,55.7713,259.65,61.3,257.778,64.8618 C254.785,70.5577,248.174,72.8145,242.518,74.9054 C229.583,79.6876,215.531,82.0993,201.898,83.8202 C172.332,87.5522,141.997,91.1469,112.151,90.1459 C105.32,89.9168,98.5559,87.6618,91.8627,86.5754 C81.4882,84.8915,70.766,84.1671,60.3186,82.9644 C50.2673,81.8073,40.4655,83.1032,30.4361,82.6272 C25.0287,82.3705,18.6815,78.7054,13.3828,77.9485 z"/>
  </g>
</svg>
