<svg viewBox="0 0 300 300">
  <g>
    <path style="fill:#a9a9a9;fill-opacity:1;fill-rule:nonzero;opacity:1;stroke:#000000;stroke-linecap:round;stroke-linejoin:round;stroke-miterlimit:10;stroke-opacity:1;stroke-width:3;" d="M150.285,89.7047 C146.383,94.4743,145.921,102.002,144.057,107.853 C138.821,124.286,135.759,141.645,131.283,158.351 C129.897,163.525,128.14,168.503,126.355,173.539 C125.954,174.671,124.202,177.84,124.765,178.969 C125.102,179.644,127.233,179.798,127.916,179.974 C131.368,180.864,135.248,180.58,138.792,181.068 C149.756,182.577,160.734,184.864,171.679,186.582 C174.867,187.083,181.61,189.433,184.633,188.386 C185.99,187.916,184.469,182.881,184.381,181.757 C183.83,174.686,181.141,166.448,178.991,159.687 C175.809,149.68,172.08,139.314,170.028,128.999 C168.538,121.507,168.914,113.89,166.88,106.445 C165.871,102.75,165.451,98.5777,165.385,94.771 C165.366,93.6841,165.571,90.8195,164.687,90.0771 C162.144,87.9419,153.733,90.6897,150.285,89.7047 z"/>
    <path style="fill:#a9a9a9;fill-opacity:1;fill-rule:nonzero;opacity:1;stroke:#000000;stroke-linecap:round;stroke-linejoin:round;stroke-miterlimit:10;stroke-opacity:1;stroke-width:3;" d="M137.014,182.142 C134.9,190.07,138.09,200.265,137.673,208.675 C137.132,219.614,134.968,230.516,133.011,241.269 C131.494,249.602,130.553,257.811,127.862,265.884"/>
    <path style="fill:#a9a9a9;fill-opacity:1;fill-rule:nonzero;opacity:1;stroke:#000000;stroke-linecap:round;stroke-linejoin:round;stroke-miterlimit:10;stroke-opacity:1;stroke-width:3;" d="M177.055,186.718 C174.918,195.264,175.682,204.593,175.682,213.352 C175.682,229.935,174.309,250.287,181.402,265.656"/>
    <path style="fill:#a9a9a9;fill-opacity:1;fill-rule:nonzero;opacity:1;stroke:#000000;stroke-linecap:round;stroke-linejoin:round;stroke-miterlimit:10;stroke-opacity:1;stroke-width:3;" d="M126.947,267.486 C131.259,275.033,137.647,277.669,146.229,276.394 C148.194,276.102,152.275,276.621,153.283,274.399 C154.204,272.368,153.039,269.715,152.267,267.853 C148.771,259.416,139.318,258.471,131.752,261.308"/>
    <path style="fill:#a9a9a9;fill-opacity:1;fill-rule:nonzero;opacity:1;stroke:#000000;stroke-linecap:round;stroke-linejoin:round;stroke-miterlimit:10;stroke-opacity:1;stroke-width:3;" d="M181.174,265.656 C186.047,270.529,191.391,269.51,197.803,268.372 C200.395,267.912,204.657,267.087,204.489,263.672 C204.312,260.053,199.929,256.463,196.95,255.102 C189.458,251.677,183.521,251.747,177.742,258.105"/>
    <path style="fill:none;opacity:1;stroke:#000000;stroke-linecap:round;stroke-linejoin:round;stroke-miterlimit:10;stroke-opacity:1;stroke-width:3;" d="M147.539,95.8825 C143.759,100.293,141.62,105.55,138.29,110.258 C129.693,122.408,121.374,134.836,112.99,147.135 C108.886,135.721,108.058,120.434,108.702,108.39 C109.146,100.095,110.847,90.462,103.38,85.1286"/>
    <path style="fill:none;opacity:1;stroke:#000000;stroke-linecap:round;stroke-linejoin:round;stroke-miterlimit:10;stroke-opacity:1;stroke-width:3;" d="M166.759,99.3145 C174.455,109.576,179.231,123.419,183.84,135.361 C185.678,140.125,186.835,144.872,189.639,149.194 C190.989,141.945,190.131,134.015,190.962,126.627 C193.303,105.83,199.895,88.5948,215.952,74.8324"/>
    <path style="fill:none;opacity:1;stroke:#000000;stroke-linecap:round;stroke-linejoin:round;stroke-miterlimit:10;stroke-opacity:1;stroke-width:3;" d="M104.753,89.7047 C98.3714,90.8308,92.4001,96.0237,92.3974,102.975 C97.8163,103.742,102.101,101.656,107.27,100.687"/>
    <path style="fill:none;opacity:1;stroke:#000000;stroke-linecap:round;stroke-linejoin:round;stroke-miterlimit:10;stroke-opacity:1;stroke-width:3;" d="M207.029,87.6455 C211.028,89.7991,215.342,91.3029,219.741,89.0677 C225.294,86.2463,220.573,80.9381,216.638,80.0949"/>
  </g>
</svg>
