<svg viewBox="0 0 300 300">
  <g >
    <path style="fill:#a9a9a9;fill-opacity:1;fill-rule:nonzero;opacity:1;stroke:#000000;stroke-linecap:round;stroke-linejoin:round;stroke-miterlimit:10;stroke-opacity:1;stroke-width:3;" d="M147.653,89.3753 C147.653,110.18,140.868,129.621,136.132,149.627 C134.377,157.042,130.543,165.145,131.147,172.844 C131.622,178.908,136.308,184.041,141.095,187.223 C150.35,193.378,162.125,196.613,173.313,195.086 C188.47,193.016,188.363,178.115,187.252,165.905 C186.656,159.353,186.809,153.171,184.98,146.742 C183.304,140.849,180.123,135.388,177.789,129.737 C172.835,117.743,167.628,102.997,166.91,90.055"/>
    <path  style="fill:none;opacity:1;stroke:#000000;stroke-linecap:round;stroke-linejoin:round;stroke-miterlimit:10;stroke-opacity:1;stroke-width:3;" d="M170.081,97.3045 C171.882,99.2848,174.493,100.95,175.913,103.195 C182.191,113.129,183.269,125.713,186.5,136.815 C188.906,145.081,192.918,153.168,195.967,161.232 C198.209,167.16,199.488,173.688,203.611,178.635"/>
    <path  style="fill:none;opacity:1;stroke:#000000;stroke-linecap:round;stroke-linejoin:round;stroke-miterlimit:10;stroke-opacity:1;stroke-width:3;" d="M147.88,94.3594 C137.777,93.7279,135.295,108.232,133.03,115.861 C125.619,140.828,123.14,166.936,114.35,191.549"/>
    <path  style="fill:#a9a9a9;fill-opacity:1;fill-rule:nonzero;opacity:1;stroke:#000000;stroke-linecap:round;stroke-linejoin:round;stroke-miterlimit:10;stroke-opacity:1;stroke-width:3;" d="M144.255,189.057 C142.738,200.437,144.556,212.131,143.531,223.58 C142.355,236.729,138.846,249.549,137.524,262.641 C136.831,269.508,132.169,282.465,141.253,285.341 C146.64,287.047,156.562,284.675,156.229,277.601 C155.941,271.477,144.135,266.673,139.044,266.31"/>
    <path  style="fill:#a9a9a9;fill-opacity:1;fill-rule:nonzero;opacity:1;stroke:#000000;stroke-linecap:round;stroke-linejoin:round;stroke-miterlimit:10;stroke-opacity:1;stroke-width:3;" d="M177.557,196.533 C177.557,205.475,176.037,214.382,175.973,223.356 C175.893,234.482,177.307,245.688,176.626,256.808 C176.301,262.118,173.813,275.859,178.805,279.422 C185.464,284.174,193.05,279.814,198.067,275.276 C200.348,273.212,203.308,271.341,203.138,267.876 C202.961,264.269,199.091,261.694,196.13,260.382 C189.666,257.519,185.568,255.206,178.69,258.154"/>
  </g>
</svg>
